<svg xmlns="http://www.w3.org/2000/svg" xmlns:xlink="http://www.w3.org/1999/xlink" contentStyleType="text/css" data-diagram-type="DESCRIPTION" height="578.2px" preserveAspectRatio="none" style="width:562px;height:578px;background:#FFFFFF;" version="1.1" viewBox="0 0 562 578" width="562.1px" zoomAndPan="magnify"><defs/><g><!--cluster Recipe Web Application--><g class="cluster" data-entity="Recipe Web Application" data-source-line="15" data-uid="ent0006" id="cluster_Recipe Web Application"><rect fill="none" height="543.9" rx="1.75" ry="1.75" style="stroke:#181818;stroke-width:0.7;" width="369.6" x="188.65" y="30.107"/><text fill="#000000" font-family="sans-serif" font-size="9.8" font-weight="bold" lengthAdjust="spacing" textLength="111.6233" x="317.6383" y="42.0822">Recipe Web Application</text></g><!--cluster Authentication--><g class="cluster" data-entity="Authentication" data-source-line="17" data-uid="ent0007" id="cluster_Authentication"><rect fill="none" height="107.8" rx="1.75" ry="1.75" style="stroke:#181818;stroke-width:0.7;" width="126" x="415.45" y="61.607"/><text fill="#000000" font-family="sans-serif" font-size="9.8" font-weight="bold" lengthAdjust="spacing" textLength="68.5952" x="444.1524" y="73.5822">Authentication</text></g><!--cluster Recipe Discovery--><g class="cluster" data-entity="Recipe Discovery" data-source-line="22" data-uid="ent0010" id="cluster_Recipe Discovery"><rect fill="none" height="311.5" rx="1.75" ry="1.75" style="stroke:#181818;stroke-width:0.7;" width="141.4" x="208.6" y="245.707"/><text fill="#000000" font-family="sans-serif" font-size="9.8" font-weight="bold" lengthAdjust="spacing" textLength="81.7113" x="238.4443" y="257.6822">Recipe Discovery</text></g><!--cluster Member Features--><g class="cluster" data-entity="Member Features" data-source-line="31" data-uid="ent0017" id="cluster_Member Features"><rect fill="none" height="167.3" rx="1.75" ry="1.75" style="stroke:#181818;stroke-width:0.7;" width="147.7" x="205.45" y="61.607"/><text fill="#000000" font-family="sans-serif" font-size="9.8" font-weight="bold" lengthAdjust="spacing" textLength="81.1515" x="238.7243" y="73.5822">Member Features</text></g><!--entity UC001--><g class="entity" data-entity="UC001" data-source-line="18" data-uid="ent0008" id="entity_UC001"><ellipse cx="478.289" cy="99.5148" fill="#F1F1F1" rx="51.639" ry="12.0078" style="stroke:#181818;stroke-width:0.35;"/><text fill="#000000" font-family="sans-serif" font-size="9.8" lengthAdjust="spacing" textLength="74.6245" x="440.9767" y="103.5822">Register Account</text></g><!--entity UC002--><g class="entity" data-entity="UC002" data-source-line="19" data-uid="ent0009" id="entity_UC002"><ellipse cx="478.6053" cy="147.124" fill="#F1F1F1" rx="19.0553" ry="11.317" style="stroke:#181818;stroke-width:0.35;"/><text fill="#000000" font-family="sans-serif" font-size="9.8" lengthAdjust="spacing" textLength="23.9784" x="466.6161" y="151.1914">Login</text></g><!--entity UC003--><g class="entity" data-entity="UC003" data-source-line="23" data-uid="ent0011" id="entity_UC003"><ellipse cx="279.3725" cy="386.3515" fill="#F1F1F1" rx="50.8225" ry="11.8445" style="stroke:#181818;stroke-width:0.35;"/><text fill="#000000" font-family="sans-serif" font-size="9.8" lengthAdjust="spacing" textLength="72.4425" x="243.1513" y="390.4189">View Recipe List</text></g><!--entity UC004--><g class="entity" data-entity="UC004" data-source-line="24" data-uid="ent0012" id="entity_UC004"><ellipse cx="279.2696" cy="435.4009" fill="#F1F1F1" rx="54.5696" ry="12.5939" style="stroke:#181818;stroke-width:0.35;"/><text fill="#000000" font-family="sans-serif" font-size="9.8" lengthAdjust="spacing" textLength="82.2473" x="238.146" y="439.4683">View Recipe Detail</text></g><!--entity UC005--><g class="entity" data-entity="UC005" data-source-line="25" data-uid="ent0013" id="entity_UC005"><ellipse cx="279.222" cy="484.4614" fill="#F1F1F1" rx="49.622" ry="11.6044" style="stroke:#181818;stroke-width:0.35;"/><text fill="#000000" font-family="sans-serif" font-size="9.8" lengthAdjust="spacing" textLength="69.179" x="244.6325" y="488.5288">Search Recipes</text></g><!--entity UC006--><g class="entity" data-entity="UC006" data-source-line="26" data-uid="ent0014" id="entity_UC006"><ellipse cx="279.1337" cy="533.4437" fill="#F1F1F1" rx="54.7837" ry="12.6367" style="stroke:#181818;stroke-width:0.35;"/><text fill="#000000" font-family="sans-serif" font-size="9.8" lengthAdjust="spacing" textLength="82.7928" x="237.7373" y="537.5111">Browse Categories</text></g><!--entity UC009--><g class="entity" data-entity="UC009" data-source-line="27" data-uid="ent0015" id="entity_UC009"><ellipse cx="279.2971" cy="284.7664" fill="#F1F1F1" rx="55.6471" ry="12.8094" style="stroke:#181818;stroke-width:0.35;"/><text fill="#000000" font-family="sans-serif" font-size="9.8" lengthAdjust="spacing" textLength="84.9796" x="236.8073" y="288.8338">Load More Recipes</text></g><!--entity UC010--><g class="entity" data-entity="UC010" data-source-line="28" data-uid="ent0016" id="entity_UC010"><ellipse cx="279.1881" cy="335.9146" fill="#F1F1F1" rx="59.3881" ry="13.5576" style="stroke:#181818;stroke-width:0.35;"/><text fill="#000000" font-family="sans-serif" font-size="9.8" lengthAdjust="spacing" textLength="94.2341" x="232.071" y="339.982">View Random Recipe</text></g><!--entity UC007--><g class="entity" data-entity="UC007" data-source-line="32" data-uid="ent0018" id="entity_UC007"><ellipse cx="279.3201" cy="151.771" fill="#F1F1F1" rx="50.4201" ry="11.764" style="stroke:#181818;stroke-width:0.35;"/><text fill="#000000" font-family="sans-serif" font-size="9.8" lengthAdjust="spacing" textLength="71.3562" x="243.642" y="155.8384">Add to Favorites</text></g><!--entity UC007b--><g class="entity" data-entity="UC007b" data-source-line="33" data-uid="ent0019" id="entity_UC007b"><ellipse cx="279.2036" cy="202.8477" fill="#F1F1F1" rx="62.5536" ry="14.1907" style="stroke:#181818;stroke-width:0.35;"/><text fill="#000000" font-family="sans-serif" font-size="9.8" lengthAdjust="spacing" textLength="101.8377" x="228.2847" y="206.9151">Remove from Favorites</text></g><!--entity UC008--><g class="entity" data-entity="UC008" data-source-line="34" data-uid="ent0020" id="entity_UC008"><ellipse cx="279.1355" cy="101.3341" fill="#F1F1F1" rx="60.7355" ry="13.8271" style="stroke:#181818;stroke-width:0.35;"/><text fill="#000000" font-family="sans-serif" font-size="9.8" lengthAdjust="spacing" textLength="97.4928" x="230.3891" y="105.4015">View Favorite Recipes</text></g><!--entity G--><g class="entity" data-entity="G" data-source-line="8" data-uid="ent0002" id="entity_G"><ellipse cx="23.1" cy="318.157" fill="#F1F1F1" rx="11.2" ry="11.2" style="stroke:#181818;stroke-width:0.35;"/><path d="M23.1,332.157 C25.9,332.157 28,332.157 30.8,329.357 C36.4,329.357 42,334.957 42,340.557 L42,343.357 C42,346.157 39.2,348.957 36.4,348.957 L9.8,348.957 C7,348.957 4.2,346.157 4.2,343.357 L4.2,340.557 C4.2,334.957 9.8,329.357 15.4,329.357 C18.2,332.157 20.3,332.157 23.1,332.157" fill="#F1F1F1" style="stroke:#181818;stroke-width:0.35;"/><text fill="#000000" font-family="sans-serif" font-size="9.8" lengthAdjust="spacing" textLength="26.1461" x="10.027" y="359.8822">Guest</text></g><!--entity U--><g class="entity" data-entity="U" data-source-line="9" data-uid="ent0003" id="entity_U"><ellipse cx="120.453" cy="166.257" fill="#F1F1F1" rx="11.2" ry="11.2" style="stroke:#181818;stroke-width:0.35;"/><path d="M120.453,180.257 C123.253,180.257 125.353,180.257 128.153,177.457 C133.753,177.457 139.353,183.057 139.353,188.657 L139.353,191.457 C139.353,194.257 136.553,197.057 133.753,197.057 L107.153,197.057 C104.353,197.057 101.553,194.257 101.553,191.457 L101.553,188.657 C101.553,183.057 107.153,177.457 112.753,177.457 C115.553,180.257 117.653,180.257 120.453,180.257" fill="#F1F1F1" style="stroke:#181818;stroke-width:0.35;"/><text fill="#000000" font-family="sans-serif" font-size="9.8" lengthAdjust="spacing" textLength="70.806" x="85.05" y="207.9822">Registered User</text></g><!--reverse link G to U--><g class="link" data-entity-1="G" data-entity-2="U" data-source-line="12" data-uid="lnk5" id="link_G_U"><path d="M46.0409,295.362 C53.0969,283.091 55.314,279.545 63.35,266.707 C75.18,247.8 89.138,226.982 100.205,210.798" fill="none" id="G-backto-U" style="stroke:#181818;stroke-width:0.7;"/><polygon fill="none" points="39.76,306.285,49.6818,297.4557,42.3999,293.2684,39.76,306.285" style="stroke:#181818;stroke-width:0.7;"/></g><!--link G to UC001--><g class="link" data-entity-1="G" data-entity-2="UC001" data-source-line="41" data-uid="lnk21" id="link_G_UC001"><path d="M27.699,306.558 C36.008,250.446 57.022,127.085 85.05,95.907 C167.489,4.2 237.783,26.474 358.75,50.407 C395.353,57.645 431.121,74.3414 454.158,86.4304" fill="none" id="G-to-UC001" style="stroke:#181818;stroke-width:0.7;"/><polygon fill="#181818" points="457.877,88.382,453.5995,82.9752,454.7778,86.7557,450.9974,87.9339,457.877,88.382" style="stroke:#181818;stroke-width:0.7;"/></g><!--link G to UC002--><g class="link" data-entity-1="G" data-entity-2="UC002" data-source-line="42" data-uid="lnk22" id="link_G_UC002"><path d="M26.866,306.467 C32.438,266.427 47.369,192.318 85.05,142.107 C116.536,100.149 132.867,91.595 183.05,76.307 C257.754,53.557 283.374,55.888 358.75,76.307 C381.36,82.432 389.97,84.336 404.25,102.907 C409.955,110.327 403.459,116.368 409.85,123.207 C422.814,137.081 440.1691,142.2167 455.5061,144.6317" fill="none" id="G-to-UC002" style="stroke:#181818;stroke-width:0.7;"/><polygon fill="#181818" points="459.655,145.285,453.8672,141.5391,456.1976,144.7406,452.9962,147.071,459.655,145.285" style="stroke:#181818;stroke-width:0.7;"/></g><!--link G to UC003--><g class="link" data-entity-1="G" data-entity-2="UC003" data-source-line="43" data-uid="lnk23" id="link_G_UC003"><path d="M42.539,338.415 C84.196,346.885 181.0832,366.5792 236.5162,377.8492" fill="none" id="G-to-UC003" style="stroke:#181818;stroke-width:0.7;"/><polygon fill="#181818" points="240.632,378.686,235.0162,374.687,237.2022,377.9887,233.9004,380.1747,240.632,378.686" style="stroke:#181818;stroke-width:0.7;"/></g><!--link G to UC004--><g class="link" data-entity-1="G" data-entity-2="UC004" data-source-line="44" data-uid="lnk24" id="link_G_UC004"><path d="M42.413,344.771 C54.474,351.26 70.581,359.758 85.05,366.807 C127.988,387.73 137.97,395.115 183.05,410.907 C201.068,417.221 217.4374,421.7031 234.7764,425.8541" fill="none" id="G-to-UC004" style="stroke:#181818;stroke-width:0.7;"/><polygon fill="#181818" points="238.861,426.832,233.386,422.6422,235.4572,426.0171,232.0822,428.0883,238.861,426.832" style="stroke:#181818;stroke-width:0.7;"/></g><!--link G to UC005--><g class="link" data-entity-1="G" data-entity-2="UC005" data-source-line="45" data-uid="lnk25" id="link_G_UC005"><path d="M42.546,360.731 C53.788,375.207 68.985,392.882 85.05,406.007 C123.662,437.556 136.675,442.288 183.05,460.607 C201.257,467.796 218.1908,472.4134 235.8798,476.3194" fill="none" id="G-to-UC005" style="stroke:#181818;stroke-width:0.7;"/><polygon fill="#181818" points="239.981,477.225,234.4329,473.1325,236.5633,476.4703,233.2255,478.6007,239.981,477.225" style="stroke:#181818;stroke-width:0.7;"/></g><!--link G to UC006--><g class="link" data-entity-1="G" data-entity-2="UC006" data-source-line="46" data-uid="lnk26" id="link_G_UC006"><path d="M32.578,362.607 C42.035,389.067 59.283,428.54 85.05,455.007 C125.454,496.503 186.6931,515.8558 230.1211,525.2078" fill="none" id="G-to-UC006" style="stroke:#181818;stroke-width:0.7;"/><polygon fill="#181818" points="234.227,526.092,228.6576,522.0285,230.8054,525.3552,227.4787,527.503,234.227,526.092" style="stroke:#181818;stroke-width:0.7;"/></g><!--link G to UC009--><g class="link" data-entity-1="G" data-entity-2="UC009" data-source-line="47" data-uid="lnk27" id="link_G_UC009"><path d="M42.483,324.681 C48.937,321.608 56.322,318.493 63.35,316.407 C117.39,300.377 177.3965,292.7055 221.5385,288.7855" fill="none" id="G-to-UC009" style="stroke:#181818;stroke-width:0.7;"/><polygon fill="#181818" points="225.722,288.414,219.199,286.1822,222.2357,288.7236,219.6944,291.7603,225.722,288.414" style="stroke:#181818;stroke-width:0.7;"/></g><!--link G to UC010--><g class="link" data-entity-1="G" data-entity-2="UC010" data-source-line="48" data-uid="lnk28" id="link_G_UC010"><path d="M42.539,334.712 C79.373,334.915 158.3891,335.3468 215.4881,335.6618" fill="none" id="G-to-UC010" style="stroke:#181818;stroke-width:0.7;"/><polygon fill="#181818" points="219.688,335.685,213.4035,332.8503,216.1881,335.6657,213.3726,338.4502,219.688,335.685" style="stroke:#181818;stroke-width:0.7;"/></g><!--link U to UC007--><g class="link" data-entity-1="U" data-entity-2="UC007" data-source-line="51" data-uid="lnk29" id="link_U_UC007"><path d="M155.862,175.91 C180.768,171.038 210.2109,165.2771 235.9429,160.2511" fill="none" id="U-to-UC007" style="stroke:#181818;stroke-width:0.7;"/><polygon fill="#181818" points="240.065,159.446,233.3451,157.9056,236.6299,160.1169,234.4186,163.4018,240.065,159.446" style="stroke:#181818;stroke-width:0.7;"/></g><!--link U to UC007b--><g class="link" data-entity-1="U" data-entity-2="UC007b" data-source-line="52" data-uid="lnk30" id="link_U_UC007b"><path d="M155.862,187.187 C175.973,189.777 197.5536,192.5572 220.2686,195.4902" fill="none" id="U-to-UC007b" style="stroke:#181818;stroke-width:0.7;"/><polygon fill="#181818" points="224.434,196.028,218.5444,192.4443,220.9628,195.5798,217.8273,197.9982,224.434,196.028" style="stroke:#181818;stroke-width:0.7;"/></g><!--link U to UC008--><g class="link" data-entity-1="U" data-entity-2="UC008" data-source-line="53" data-uid="lnk31" id="link_U_UC008"><path d="M147.042,154.644 C157.416,144.816 169.995,134.484 183.05,127.407 C197.631,119.504 210.7209,114.8968 226.4499,110.9558" fill="none" id="U-to-UC008" style="stroke:#181818;stroke-width:0.7;"/><polygon fill="#181818" points="230.524,109.935,223.7324,108.7501,227.1289,110.7857,225.0934,114.1822,230.524,109.935" style="stroke:#181818;stroke-width:0.7;"/></g><!--link UC007 to UC002--><g class="link" data-entity-1="UC007" data-entity-2="UC002" data-source-line="56" data-uid="lnk32" id="link_UC007_UC002"><path d="M329.644,150.675 C371.861,149.632 425.9583,148.2864 455.2253,147.5654" fill="none" id="UC007-to-UC002" style="stroke:#181818;stroke-width:0.7;stroke-dasharray:4.9,4.9;"/><polygon fill="#181818" points="459.424,147.462,453.057,144.818,455.9251,147.5482,453.1949,150.4163,459.424,147.462" style="stroke:#181818;stroke-width:0.7;"/><text fill="#000000" font-family="sans-serif" font-size="9.1" lengthAdjust="spacing" textLength="38.9594" x="365.05" y="146.3268">&#171;include&#187;</text></g><!--link UC007b to UC002--><g class="link" data-entity-1="UC007b" data-entity-2="UC002" data-source-line="57" data-uid="lnk33" id="link_UC007b_UC002"><path d="M320.341,192.066 C344.673,185.416 376.278,176.694 404.25,168.707 C423.955,163.079 442.5279,157.579 457.4029,153.12" fill="none" id="UC007b-to-UC002" style="stroke:#181818;stroke-width:0.7;stroke-dasharray:4.9,4.9;"/><polygon fill="#181818" points="461.426,151.914,454.5873,151.0409,458.0734,152.919,456.1953,156.4051,461.426,151.914" style="stroke:#181818;stroke-width:0.7;"/><text fill="#000000" font-family="sans-serif" font-size="9.1" lengthAdjust="spacing" textLength="38.9594" x="365.05" y="165.9268">&#171;include&#187;</text></g><!--link UC008 to UC002--><g class="link" data-entity-1="UC008" data-entity-2="UC002" data-source-line="58" data-uid="lnk34" id="link_UC008_UC002"><path d="M322.91,111.377 C365.96,121.289 426.0291,135.1025 456.4581,142.1095" fill="none" id="UC008-to-UC002" style="stroke:#181818;stroke-width:0.7;stroke-dasharray:4.9,4.9;"/><polygon fill="#181818" points="460.551,143.052,455.04,138.9097,457.1403,142.2666,453.7833,144.3669,460.551,143.052" style="stroke:#181818;stroke-width:0.7;"/><text fill="#000000" font-family="sans-serif" font-size="9.1" lengthAdjust="spacing" textLength="38.9594" x="365.05" y="119.0268">&#171;include&#187;</text></g><!--SRC=[VLDDRzim3BtxLn2vT3kaIB_JeWYGfcWmeBqio7Qc9SOMQak693S8jlxtIRASA1-TBwRrdiX7-l4CXiCXp9HSYQBLQ8MI_YIhQ6N1Aj2YA2rmeObvB3FlGZQeiOO6sJiMjB2RYi33A8kA4e8faQkra0Mii38fWimgtLt4DHbLKvQT1I5JZvYW891WC6_9s06WWNb_z9CAOInfuh0qf0Euz1b-o9AqS48OFGG864hW2kY3zCQMNWj2o1YHR0d3jXd-dRZiKS9YutBNyAHQoL5lWfPjUxuu4mt1RyfXsZILO65c0_YJPT3F10RJrfOaROA2Urf330tjEd3zCbUdwsyv6uqkzdclgX1o2ruwy7ElJ1JpB0nJliMZGhy4hI6oNeNP5RhwclTC5aMrPLxlCnU4cfMHQxQicttMarPhzvwXfK9faH1l3pj43czAqr76-rCAKN9LHshFl1WTpUMDwjnDzuNGjjhdF1ZBb7DlxXVySE9iKlJky3_LRgwmqgxe2N9-Gc9FE-fd75H-zZPpAoUxdUhixeuxOqxZuRVePkVoV1FS_3sRE-ea6cKNNoRnLH9V9_5D4jycyVqkTdDq8iBQB1edVYLOByQlIRnmbyPvyZ7sjxrXcNDGGvAJPEx7Pu48v-THApp0uwEGh6evJIOTclyN7d-9_WC0]--></g></svg>